# xmcd
#
# Track frame offsets:
#	150
#	12680
#	28789
#	43990
#	52666
#	66014
#	75851
#	88357
#	100364
#	113504
#	124782
#	138553
#	150364
#	164025
#	177663
#	190509
#	205890
#
# Disc length: 2979 seconds
#
# Revision: 1
# Processed by: cddbd v1.5.2PL0 Copyright (c) Steve Scherf et al.
# Submitted via: audiograbber 1.83.01
#
DISCID=e50ba111
DTITLE=Cash, Johnny - CB5050-02
DYEAR=1900
DGENRE=Karaoke
TTITLE0=Cash, Johnny - Folsom Prison Blues
TTITLE1=Cash, Johnny - Boy Named Sue, A
TTITLE2=Cash, Johnny and June Carter - If I Were A Carpenter
TTITLE3=Cash, Johnny - Come In Stranger
TTITLE4=Cash, Johnny - Give My Love To Rose
TTITLE5=Cash, Johnny - Rosanna's Going Wild
TTITLE6=Cash, Johnny - Big River
TTITLE7=Cash, Johnny - I Heard That Lonesome Whistle Blow
TTITLE8=Cash, Johnny - You're The Nearest Thing To Heaven
TTITLE9=Cash, Johnny - Get Rhythm
TTITLE10=Cash, Johnny - Understand Your Man
TTITLE11=Cash, Johnny - There You Go
TTITLE12=Cash, Johnny - Man In Black
TTITLE13=Cash, Johnny - Any Old Whistle That Blows
TTITLE14=Cash, Johnny - Thanks A Lot
TTITLE15=Cash, Johnny - Ragged Old Flag
TTITLE16=Cash, Johnny - (Ghost) Riders In The Sky
EXTD=
EXTT0=
EXTT1=
EXTT2=
EXTT3=
EXTT4=
EXTT5=
EXTT6=
EXTT7=
EXTT8=
EXTT9=
EXTT10=
EXTT11=
EXTT12=
EXTT13=
EXTT14=
EXTT15=
EXTT16=
PLAYORDER=
